<svg xmlns="http://www.w3.org/2000/svg" width="32" height="32" viewBox="0 0 32 32" fill="none">
<rect width="32" height="32" rx="16" fill="#F0E5E6"/>
<circle cx="13.5078" cy="21.4064" r="1.06976" fill="#7E2832"/>
<circle cx="20.9952" cy="21.4064" r="1.06976" fill="#7E2832"/>
<path d="M20.8275 18.8181H13.5472C13.1673 18.8181 12.8429 18.5435 12.7802 18.1688L11.7778 12.1792H22.0185C22.5197 12.1792 22.8901 12.6464 22.7758 13.1344L21.5847 18.2178C21.5023 18.5695 21.1887 18.8181 20.8275 18.8181Z" fill="#7E2832"/>
<path d="M9.00012 9.52368H10.675C11.0549 9.52368 11.3793 9.79827 11.442 10.1731L11.7778 12.1792M11.7778 12.1792L12.7802 18.1688C12.8429 18.5435 13.1673 18.8181 13.5472 18.8181H20.8275C21.1887 18.8181 21.5023 18.5695 21.5847 18.2178L22.7758 13.1344C22.8901 12.6464 22.5197 12.1792 22.0185 12.1792H11.7778Z" stroke="#7E2832" stroke-width="1.60464" stroke-linecap="round" stroke-linejoin="round"/>
</svg>