<svg xmlns="http://www.w3.org/2000/svg" width="24" height="24" viewBox="0 0 24 24" fill="none">
<path fill-rule="evenodd" clip-rule="evenodd" d="M7.40401 5.98955C7.01349 5.59902 6.38032 5.59902 5.9898 5.98955C5.59927 6.38007 5.59927 7.01324 5.9898 7.40376L10.5857 11.9997L5.98918 16.5962C5.59866 16.9867 5.59866 17.6199 5.98918 18.0104C6.37971 18.4009 7.01287 18.4009 7.4034 18.0104L11.9999 13.4139L16.5964 18.0104C16.9869 18.4009 17.6201 18.4009 18.0106 18.0104C18.4011 17.6198 18.4011 16.9867 18.0106 16.5962L13.4141 11.9997L18.01 7.40379C18.4005 7.01327 18.4005 6.3801 18.01 5.98958C17.6195 5.59905 16.9863 5.59905 16.5958 5.98958L11.9999 10.5854L7.40401 5.98955Z" fill="white"/>
</svg>