<svg xmlns="http://www.w3.org/2000/svg" width="32" height="32" viewBox="0 0 32 32" fill="none">
<rect width="32" height="32" rx="16" fill="#F0E5E6"/>
<path fill-rule="evenodd" clip-rule="evenodd" d="M17.971 21.869C20.1971 19.2287 22.2022 16.8506 22.2022 14.2021C22.2022 10.7768 19.4254 8 16.0001 8C12.5747 8 9.79797 10.7768 9.79797 14.2021C9.79797 16.8135 11.7288 19.1113 13.9226 21.722C14.4931 22.401 15.0815 23.1012 15.6583 23.8335C15.8324 24.0546 16.169 24.0557 16.3444 23.8356C16.8827 23.1597 17.4333 22.5067 17.971 21.869ZM15.9996 16.6832C17.432 16.6832 18.5932 15.522 18.5932 14.0896C18.5932 12.6572 17.432 11.496 15.9996 11.496C14.5672 11.496 13.406 12.6572 13.406 14.0896C13.406 15.522 14.5672 16.6832 15.9996 16.6832Z" fill="#7E2832"/>
</svg>