<svg xmlns="http://www.w3.org/2000/svg" xmlns:xlink="http://www.w3.org/1999/xlink" version="1.1" width="104" height="62" viewBox="0 0 104 62" xml:space="preserve">
<desc>Created with Fabric.js 5.3.0</desc>
<defs>
</defs>
<g transform="matrix(1 0 0 1 52 31)" id="Me6sKQYWVDMfxH1Wy6brI">
<path style="stroke: none; stroke-width: 1; stroke-dasharray: none; stroke-linecap: butt; stroke-dashoffset: 0; stroke-linejoin: miter; stroke-miterlimit: 4; fill: rgb(33,160,56); fill-rule: nonzero; opacity: 1;" vector-effect="non-scaling-stroke" transform=" translate(-52, -31)" d="M 0 62 L 0 0 L 104 0 L 104 62 z" stroke-linecap="round"/>
</g>
<g transform="matrix(1.2991208644 0 0 1.2991208644 55.5400426548 30.2891492509)" id="DZcwiD0KXiQGMh1b_XXxq" clip-path="url(#CLIPPATH_7)">
<clipPath id="CLIPPATH_7">
	<rect transform="matrix(1 0 0 1 -2.92495 0.1268)" id="clip1_583_94864" clip-path="url(#undefined)" x="-52" y="-31" rx="0" ry="0" width="104" height="62"/>
</clipPath>
<path style="stroke: none; stroke-width: 1; stroke-dasharray: none; stroke-linecap: butt; stroke-dashoffset: 0; stroke-linejoin: miter; stroke-miterlimit: 4; fill: rgb(255,255,255); fill-rule: nonzero; opacity: 1;" vector-effect="non-scaling-stroke" transform=" translate(-54.92495, -30.8732)" d="M 52.0481 33.423 L 52.0481 37.6353 L 49.6337 37.6353 L 49.6337 24.1111 L 54.1322 24.1111 C 58.4017 24.1111 60.2162 25.6387 60.2162 28.6915 C 60.2162 31.8399 58.0916 33.423 54.1322 33.423 L 52.0481 33.423 Z M 52.0481 26.3346 L 52.0481 31.1996 L 54.3162 31.1996 C 56.5569 31.1996 57.716 30.4662 57.716 28.6311 C 57.716 26.9698 56.708 26.3319 54.3567 26.3319 L 52.0481 26.3346 Z" stroke-linecap="round"/>
</g>
<g transform="matrix(1.2991208644 0 0 1.2991208644 68.5642489686 32.7763161458)" id="TrJ1B2xlu-1qjPu0HJ04L" clip-path="url(#CLIPPATH_8)">
<clipPath id="CLIPPATH_8">
	<rect transform="matrix(1 0 0 1 -12.95035 -1.7877)" id="clip1_583_94864" clip-path="url(#undefined)" x="-52" y="-31" rx="0" ry="0" width="104" height="62"/>
</clipPath>
<path style="stroke: none; stroke-width: 1; stroke-dasharray: none; stroke-linecap: butt; stroke-dashoffset: 0; stroke-linejoin: miter; stroke-miterlimit: 4; fill: rgb(255,255,255); fill-rule: nonzero; opacity: 1;" vector-effect="non-scaling-stroke" transform=" translate(-64.95035, -32.7877)" d="M 61.4915 28.6538 C 62.1264 28.1772 63.2858 27.7838 64.9493 27.7838 C 67.7692 27.7838 69.1604 28.752 69.1604 31.2628 L 69.1604 37.6378 L 67.0358 37.6378 L 67.0358 35.8984 C 66.5723 37.0177 65.3953 37.7916 63.8479 37.7916 C 61.8973 37.7916 60.7403 36.6901 60.7403 34.797 C 60.7403 32.5938 62.3433 31.9762 64.7172 31.9762 L 66.8998 31.9762 L 66.8998 31.5525 C 66.8998 30.1813 66.2444 29.7552 64.9493 29.7552 C 63.1725 29.7552 62.1493 30.4511 61.4939 31.4746 L 61.4915 28.6538 Z M 66.8974 34.2271 L 66.8974 33.4457 L 64.9871 33.4457 C 63.6539 33.4457 63.0163 33.6977 63.0163 34.5649 C 63.0163 35.2986 63.5554 35.7625 64.561 35.7625 C 66.0858 35.7625 66.8016 34.8928 66.8974 34.2271 Z" stroke-linecap="round"/>
</g>
<g transform="matrix(1.2991208644 0 0 1.2991208644 81.7999521592 35.3096667874)" id="2l2EHfCOuyHFC9ZuERKbJ" clip-path="url(#CLIPPATH_9)">
<clipPath id="CLIPPATH_9">
	<rect transform="matrix(1 0 0 1 -23.13855 -3.73775)" id="clip1_583_94864" clip-path="url(#undefined)" x="-52" y="-31" rx="0" ry="0" width="104" height="62"/>
</clipPath>
<path style="stroke: none; stroke-width: 1; stroke-dasharray: none; stroke-linecap: butt; stroke-dashoffset: 0; stroke-linejoin: miter; stroke-miterlimit: 4; fill: rgb(255,255,255); fill-rule: nonzero; opacity: 1;" vector-effect="non-scaling-stroke" transform=" translate(-75.13855, -34.73775)" d="M 70.277 27.9769 L 72.7974 27.9769 L 75.4436 34.6018 L 77.6059 27.9769 L 80.0001 27.9769 L 76.1392 38.6603 C 75.2874 40.9768 74.4204 41.4986 73.1452 41.4986 C 72.5454 41.4986 71.8852 41.3249 71.6002 41.0753 L 71.6002 38.9679 C 71.9108 39.271 72.3254 39.4442 72.7597 39.4517 C 73.4525 39.4517 73.9744 38.9879 74.3421 37.6873 L 70.277 27.9769 Z" stroke-linecap="round"/>
</g>
<g transform="matrix(1.2991208644 0 0 1.2991208644 32.8719425162 28.6412793905)" id="QwxXX3AdFUB2C3btVEG2Y" clip-path="url(#CLIPPATH_10)">
<clipPath id="CLIPPATH_10">
	<rect transform="matrix(1 0 0 1 14.52385 1.39525)" id="clip1_583_94864" clip-path="url(#undefined)" x="-52" y="-31" rx="0" ry="0" width="104" height="62"/>
</clipPath>
<path style="stroke: none; stroke-width: 1; stroke-dasharray: none; stroke-linecap: butt; stroke-dashoffset: 0; stroke-linejoin: miter; stroke-miterlimit: 4; fill: rgb(255,255,255); fill-rule: nonzero; opacity: 1;" vector-effect="non-scaling-stroke" transform=" translate(-37.47615, -29.60475)" d="M 30.8038 28.6631 L 30.8038 31.6302 L 34.7354 34.0957 L 44.1485 27.1683 C 43.8163 26.4376 43.4002 25.7484 42.9085 25.1138 L 34.7354 31.1286 L 30.8038 28.6631 Z" stroke-linecap="round"/>
</g>
<g transform="matrix(1.2991208644 0 0 1.2991208644 29.3080609936 31)" id="2l5xCn8k44f7RmeWj0fhJ" clip-path="url(#CLIPPATH_11)">
<clipPath id="CLIPPATH_11">
	<rect transform="matrix(1 0 0 1 17.2671525058 -0.4203783023)" id="clip1_583_94864" clip-path="url(#undefined)" x="-52" y="-31" rx="0" ry="0" width="104" height="62"/>
</clipPath>
<path style="stroke: none; stroke-width: 1; stroke-dasharray: none; stroke-linecap: butt; stroke-dashoffset: 0; stroke-linejoin: miter; stroke-miterlimit: 4; fill: rgb(255,255,255); fill-rule: nonzero; opacity: 1;" vector-effect="non-scaling-stroke" transform=" translate(-34.7328474942, -31.4203783023)" d="M 42.6767 31.2011 L 42.6767 31.4157 C 42.6794 33.1927 42.0871 34.9194 40.9941 36.3206 C 39.9011 37.7218 38.3704 38.7162 36.6463 39.1456 C 34.9223 39.575 33.1041 39.4142 31.4819 38.6893 C 29.8597 37.9644 28.527 36.717 27.6964 35.146 C 26.8658 33.575 26.5851 31.771 26.8992 30.022 C 27.2133 28.2727 28.104 26.6794 29.4293 25.4957 C 30.7546 24.3119 32.438 23.6063 34.211 23.4914 C 35.984 23.3764 37.7444 23.8587 39.2113 24.8615 L 41.2275 23.3816 C 39.4046 21.9081 37.1351 21.0983 34.7914 21.0851 C 32.4478 21.0718 30.1692 21.8558 28.3297 23.3085 C 26.4902 24.7612 25.1992 26.7963 24.6684 29.0795 C 24.1376 31.3631 24.3986 33.759 25.4087 35.8746 C 26.4187 37.9898 28.1177 39.6989 30.2269 40.7212 C 32.336 41.7434 34.7299 42.0184 37.0157 41.5005 C 39.3015 40.9825 41.3434 39.7025 42.8062 37.871 C 44.2689 36.0395 45.0658 33.7648 45.0658 31.4205 C 45.0656 30.7992 45.0099 30.1792 44.8995 29.5678 L 42.6767 31.2011 Z" stroke-linecap="round"/>
</g>
</svg>