<svg xmlns="http://www.w3.org/2000/svg" width="10" height="12" viewBox="0 0 10 12" fill="none">
<path fill-rule="evenodd" clip-rule="evenodd" d="M6.4769 10.3968C8.14476 8.4186 9.64698 6.63688 9.64698 4.65259C9.64698 2.08627 7.56657 0.00585938 5.00025 0.00585938C2.43393 0.00585938 0.353516 2.08627 0.353516 4.65259C0.353516 6.60907 1.80013 8.33064 3.44373 10.2866C3.87121 10.7954 4.31202 11.3199 4.74416 11.8686C4.87462 12.0343 5.12683 12.0351 5.2582 11.8702C5.66154 11.3638 6.07405 10.8746 6.4769 10.3968ZM5.00009 6.51144C6.07326 6.51144 6.94324 5.64146 6.94324 4.56829C6.94324 3.49512 6.07326 2.62515 5.00009 2.62515C3.92692 2.62515 3.05694 3.49512 3.05694 4.56829C3.05694 5.64146 3.92692 6.51144 5.00009 6.51144Z" fill="#36242A"/>
</svg>