<svg width="32" height="32" viewBox="0 0 32 32" fill="none" xmlns="http://www.w3.org/2000/svg">
<path d="M16.0193 2.03566C14.847 2.20263 13.7474 2.71569 12.9719 3.45949C12.2782 4.12131 11.9086 4.8651 11.8087 5.80016C11.6602 7.21488 12.2994 8.53549 13.4021 9.08802C13.7565 9.2641 13.9685 9.31268 14.4623 9.32786C14.9985 9.34607 15.1711 9.31268 15.565 9.12142C15.883 8.96355 16.2587 8.60835 16.4253 8.30476C16.6222 7.94349 16.6737 7.7158 16.6737 7.19666C16.6737 6.802 16.6646 6.71396 16.604 6.54091C16.5283 6.31626 16.4253 6.20089 16.3253 6.21607C16.2738 6.22214 16.2435 6.27072 16.192 6.42251C16.083 6.73217 15.9981 6.88093 15.8406 7.02969C15.6346 7.22702 15.4589 7.30596 15.1772 7.32417C14.6289 7.36364 14.2018 7.08434 13.9352 6.51359C13.7807 6.18268 13.7413 5.97017 13.7595 5.57246C13.808 4.48258 14.5017 3.71754 15.6982 3.43824C16.1072 3.34412 16.9917 3.34716 17.4461 3.44431C18.6578 3.70236 19.712 4.31561 20.7813 5.38727C22.611 7.22399 24.1287 9.99272 24.8193 12.7584C25.513 15.5362 25.5615 18.7179 24.9435 21.2316C24.4831 23.1108 23.6985 24.568 22.505 25.7611C21.3084 26.9603 20.0392 27.5948 18.2792 27.8771C17.7915 27.9561 16.298 27.9561 15.8255 27.8771C13.6777 27.5159 11.9086 26.3895 10.2789 24.3464C8.89452 22.6099 7.98272 20.6001 7.6192 18.475C7.44957 17.4944 7.43442 17.2606 7.43442 15.7275C7.43442 14.9139 7.4526 14.0669 7.4738 13.7542C7.67373 10.8488 8.08874 9.03337 8.93693 7.3606C9.40041 6.4468 10.0668 5.59675 10.9029 4.84992C11.2392 4.54937 11.3634 4.38543 11.3513 4.25185C11.3452 4.18506 11.321 4.1547 11.2604 4.13345C10.9817 4.03631 9.77301 4.75885 8.93693 5.52085C7.39201 6.93558 6.16819 9.16999 5.54416 11.711C5.19277 13.1288 5.0413 14.3674 5.00495 16.0311C4.95951 18.1835 5.22609 20.0597 5.82891 21.86C6.76495 24.6591 8.54616 27.1242 10.6303 28.5086C11.8814 29.3404 13.1264 29.7897 14.7198 29.9871C15.1954 30.0447 16.6313 30.0356 17.125 29.9719C19.0698 29.7108 20.6299 29.0429 22.1869 27.8012C22.6383 27.44 23.5471 26.5353 23.9469 26.0495C26.1462 23.3749 27.3609 20.3694 27.5941 17.0178C27.6335 16.444 27.6335 15.1598 27.5941 14.5435C27.376 11.1919 26.3976 8.37155 24.6255 6.00356C24.1893 5.42067 23.9045 5.08672 23.435 4.62527C22.7473 3.94219 21.9809 3.38055 21.16 2.95857C20.2361 2.48497 19.4757 2.2421 18.3549 2.06601C17.9157 1.99619 16.4283 1.97494 16.0193 2.03566Z" fill="black"/>
<path d="M21.16 8.7814C21.2085 9.255 21.1903 10.1111 21.1327 10.3995C21.0055 11.0067 20.751 11.6017 20.3936 12.1269L20.2028 12.4123L20.2694 12.4882L20.3391 12.5611L20.2028 12.4973C20.127 12.4639 19.818 12.3334 19.5151 12.2089C18.5336 11.8021 18.2277 11.6108 17.746 11.1039C17.2038 10.5331 16.7645 9.71645 16.5979 8.96355C16.5464 8.74497 16.4768 8.72675 16.4768 8.93319C16.4768 9.10624 16.5949 9.6102 16.6979 9.88646C16.8009 10.1597 16.9736 10.4967 17.1462 10.7608C17.228 10.8853 17.2947 10.9885 17.2947 10.9946C17.2947 11.0006 17.2674 11.0067 17.2341 11.0067C17.1523 11.0067 17.122 11.0765 17.0978 11.3407C17.0887 11.4651 17.0493 11.7323 17.016 11.9326C16.8797 12.7129 16.913 12.977 17.1765 13.2654C17.3219 13.4263 17.4734 13.5083 17.7793 13.5994C17.8702 13.6267 17.9853 13.6783 18.0338 13.7178L18.1247 13.7906L18.1944 14.5465C18.2307 14.9625 18.2973 15.6213 18.3398 16.0129C18.4761 17.2455 18.4518 17.5035 18.1429 18.2716C17.8005 19.1125 17.4219 19.5375 16.6706 19.9261C16.1345 20.1994 16.0224 20.2206 15.0379 20.2206C14.0564 20.2206 13.8807 20.1933 13.5081 19.9869C13.2294 19.8351 12.7841 19.4009 12.6114 19.1125C12.5478 19.0032 12.4509 18.7938 12.3994 18.642C12.3479 18.4932 12.2843 18.3596 12.26 18.3414C12.1358 18.2625 12.048 18.4143 11.8965 18.9789C11.8087 19.3068 11.7996 19.3827 11.7996 19.7956C11.7966 20.2328 11.7996 20.257 11.8783 20.4028C12.0177 20.6699 12.2812 20.8885 12.5842 20.9978L12.7356 21.0494L12.7387 21.3044C12.7447 21.7598 12.8871 22.1909 13.3415 23.1502C13.9625 24.4557 14.3835 25.1843 14.8682 25.8006C15.0591 26.0404 15.1439 26.086 15.2014 25.9797C15.2257 25.9372 15.2105 25.8825 15.1409 25.7581C14.7804 25.0993 14.638 24.5559 14.6077 23.6906C14.5774 22.8801 14.6774 22.6038 14.9955 22.6038C15.0712 22.6038 15.1318 22.6493 15.3347 22.8618C15.674 23.211 15.8255 23.2808 16.2859 23.296C16.813 23.3142 17.1947 23.217 17.8096 22.9074C17.9429 22.8406 18.0611 22.7859 18.0702 22.7859C18.1247 22.7859 18.0429 23.1776 17.9157 23.5237C17.7127 24.0732 17.0099 25.4757 16.704 25.9402C16.5373 26.1892 16.6858 26.2651 16.9463 26.0647C17.3977 25.7156 18.2943 24.6014 18.8547 23.6937C19.3394 22.9074 19.8756 21.608 20.127 20.6001C20.3694 19.6317 20.4936 18.8363 20.5239 18.0803C20.5572 17.2788 20.4754 16.5381 20.3027 16.0615C20.1785 15.7123 20.1785 15.7245 20.333 15.7002C20.4845 15.6759 20.9449 15.4634 21.1661 15.3116C21.5296 15.0687 21.7174 14.8623 21.7174 14.7135C21.7174 14.6255 21.5356 14.4342 21.2569 14.2187C20.9782 14.0062 20.9298 13.9242 20.845 13.5113C20.7571 13.0711 20.6723 12.8707 20.5087 12.7068C20.3815 12.5823 20.3754 12.5671 20.4421 12.5702C20.4996 12.5702 20.5481 12.5125 20.7056 12.2514C21.16 11.4985 21.3842 10.6788 21.3842 9.78324C21.3842 9.20035 21.2721 8.51728 21.1782 8.51728C21.1418 8.51728 21.1388 8.55978 21.16 8.7814ZM17.6582 11.6898C17.8127 11.8719 17.9732 12.0905 18.0126 12.1755C18.2943 12.7281 18.576 13.0104 19.1213 13.2775C19.5696 13.4992 19.6272 13.5386 19.5757 13.5902C19.4757 13.6904 19.5908 14.0122 19.7756 14.164C19.9574 14.3158 20.2088 14.3462 20.2482 14.2247C20.2694 14.161 20.2179 13.9151 20.1573 13.8028C20.0573 13.6054 19.7423 13.3747 19.2031 13.1015C18.7154 12.8525 18.4791 12.6248 18.2368 12.1755C18.1459 12.0085 17.9944 11.7839 17.9035 11.6746L17.7339 11.4773L17.9066 11.6351C18.3458 12.0298 18.6548 12.1786 20.1028 12.6977C20.4148 12.81 20.5632 13.059 20.6844 13.6601C20.7571 14.0183 20.8298 14.1397 21.0873 14.3401C21.1903 14.419 21.3327 14.5344 21.4054 14.6012C21.5265 14.7105 21.5326 14.7196 21.4902 14.7833C21.3357 15.005 20.5602 15.4725 20.2785 15.518C20.1725 15.5332 20.1482 15.5241 20.0907 15.4573C20.0058 15.3602 19.8574 15.3511 19.8089 15.4391C19.7696 15.512 19.8392 15.6668 19.921 15.6941C20.021 15.7275 20.233 16.4015 20.2906 16.8811C20.333 17.2303 20.333 18.3262 20.2906 18.7118C20.2512 19.0852 20.0755 20.0203 19.9574 20.4938C19.6847 21.5989 19.1031 22.9681 18.5579 23.7969C18.1489 24.4132 17.2553 25.5668 17.119 25.6518C17.1038 25.6609 17.2371 25.3968 17.4158 25.0629C17.9308 24.0974 18.2458 23.302 18.2822 22.8679L18.3034 22.6402L18.4246 22.5856C18.5579 22.5249 18.7184 22.3093 18.7184 22.1909C18.7184 21.945 18.3731 22.0847 18.1853 22.4095C18.1156 22.5309 18.0671 22.5613 17.7097 22.7374C17.1917 22.9893 16.8766 23.0895 16.5071 23.1108C15.9951 23.1411 15.7225 23.0349 15.4529 22.6949C15.2863 22.4854 15.1742 22.4216 14.9773 22.4216C14.5532 22.4216 14.4169 22.6949 14.4169 23.5631C14.4169 24.0792 14.4865 24.6166 14.5986 24.9839C14.6289 25.0811 14.6441 25.1509 14.6289 25.1357C14.5259 25.0295 14.1897 24.4192 13.7837 23.6056C13.1113 22.2516 12.9325 21.7689 12.9325 21.3075V21.0858H13.0719C13.2536 21.0858 13.3869 20.9644 13.3869 20.8005C13.3869 20.6669 13.2991 20.6001 13.1264 20.6001C12.9961 20.6001 12.8629 20.6942 12.8265 20.8126C12.8114 20.8642 12.7992 20.8673 12.6932 20.8278C12.4085 20.7276 12.157 20.5272 12.048 20.3117C11.9208 20.0658 11.945 19.5254 12.1086 18.9455L12.1964 18.642L12.2358 18.7634C12.3539 19.1247 12.6932 19.6165 13.0173 19.8867C13.1294 19.9808 13.3445 20.1174 13.4929 20.1933C13.8807 20.3815 14.1261 20.418 15.0682 20.424C15.7891 20.4271 15.8406 20.424 16.1163 20.3481C16.7979 20.169 17.4643 19.7409 17.846 19.237C18.1277 18.8636 18.467 18.0773 18.5791 17.5248C18.6457 17.206 18.6397 17.0329 18.5367 16.0584C18.4882 15.5939 18.4185 14.8896 18.3822 14.498C18.3367 13.9819 18.3034 13.7603 18.2671 13.6935C18.2004 13.5751 18.052 13.4779 17.843 13.4172C17.5582 13.3322 17.4976 13.3049 17.3765 13.1956C17.1129 12.9588 17.0735 12.7341 17.1856 12.0996C17.225 11.8568 17.2704 11.5744 17.2825 11.4682C17.2977 11.3103 17.3098 11.283 17.3401 11.3164C17.3613 11.3376 17.5037 11.5046 17.6582 11.6898ZM19.9574 13.8544C20.0301 13.9576 20.0786 14.1246 20.024 14.0912C19.9846 14.0669 19.8695 13.8513 19.8695 13.7997C19.8695 13.7511 19.8907 13.7633 19.9574 13.8544ZM13.2052 20.8065C13.2052 20.8551 13.1325 20.9037 13.0567 20.9037C12.9871 20.9037 12.984 20.9007 13.0386 20.843C13.0931 20.7823 13.2052 20.758 13.2052 20.8065Z" fill="black"/>
<path d="M20.4966 21.0464C20.4663 21.0737 20.4723 21.1709 20.5026 21.1891C20.5178 21.2012 20.6571 21.2134 20.8147 21.2194C21.3842 21.2437 21.8537 21.5169 22.0415 21.9298C22.1869 22.2456 22.1233 22.7951 21.887 23.2687C21.8264 23.387 21.7719 23.4842 21.7658 23.4842C21.7598 23.4842 21.7658 23.4326 21.781 23.3688C21.8264 23.1897 21.8173 22.7617 21.7658 22.5127C21.6447 21.9329 21.3205 21.7629 20.5663 21.8873C20.1512 21.9541 20.0392 21.9996 20.027 22.0968C20.0149 22.1939 20.0573 22.2 20.3148 22.1332C20.6147 22.0543 21.0479 22.0148 21.1903 22.0543C21.4841 22.1332 21.6114 22.4125 21.6114 22.9681C21.6114 23.3779 21.5477 23.6026 21.3508 23.9123C21.2175 24.1157 21.2054 24.2219 21.3145 24.2371C21.4023 24.2492 21.6962 23.9517 21.8991 23.6421C22.1778 23.217 22.3475 22.6372 22.3141 22.2273C22.2566 21.5321 21.6023 21.0282 20.7601 21.0251C20.6268 21.0251 20.5057 21.0342 20.4966 21.0464Z" fill="black"/>
<path d="M12.8265 23.2929C12.6993 24.0792 12.5539 24.5164 12.1631 25.2845C11.845 25.9159 11.8299 25.9736 11.9904 25.9979C12.0661 26.0101 12.36 25.7399 12.6266 25.412C13.0658 24.8716 13.5505 24.0124 13.4717 23.9153C13.396 23.8273 13.3384 23.8819 13.1809 24.1946C12.984 24.5832 12.781 24.902 12.5024 25.2511C12.3872 25.3998 12.2873 25.5182 12.2843 25.5182C12.2812 25.5182 12.357 25.3573 12.4509 25.16C12.7296 24.5953 12.978 23.7696 12.9992 23.3415C13.0082 23.2049 13.0052 23.1958 12.9265 23.1867C12.8538 23.1776 12.8447 23.1897 12.8265 23.2929Z" fill="black"/>
</svg>
