<?xml version="1.0" encoding="UTF-8"?>
<svg id="_Слой_1" data-name="Слой 1" xmlns="http://www.w3.org/2000/svg" viewBox="0 0 1001.85 1129.16">
  <defs>
    <style>
      .cls-1 {
        stroke-width: 11px;
      }

      .cls-1, .cls-2 {
        fill: none;
        stroke: #000;
        stroke-miterlimit: 10;
      }

      .cls-3 {
        font-family: FuturaDemiC, FuturaDemiC;
        font-size: 270px;
      }

      .cls-2 {
        stroke-width: 9px;
      }
    </style>
  </defs>
  <path class="cls-1" d="m429.16,824c.09,21.74-3.05,53.63-19,87-7.38,15.44-18.95,39.64-42,54-12.04,7.5-18.58,11.58-29,14-12.63,2.94-22.16,1.4-26,8-1.77,3.04-1.84,7.02-2,15-.1,5.02-.12,7.55,1,9,4.27,5.51,20.42-.31,25-2,43.24-15.96,67-46,67-46,25.48-32.22,30.81-66.8,35-94,3.09-20.07,3.37-37.13,3-49.22h0c-81.78,24.48-163.56,48.95-245.34,73.43-1.14.34-2.2-.72-1.86-1.86l27.91-92.06c.17-.57-.01-1.19-.47-1.58L6.04,616.57c-.86-.72-.65-2.09.38-2.52l60.51-25.53c.7-.3,1.07-1.08.85-1.81l-44.91-149.39c-.32-1.07.6-2.1,1.69-1.9l125.42,22.36c.69.12,1.38-.25,1.64-.9l28.64-69.7c.42-1.02,1.75-1.25,2.49-.44l122.25,134.76c.98,1.08,2.77.26,2.59-1.18l-34.08-278.5c-.15-1.2,1.11-2.06,2.18-1.5l74.22,39.01c.7.37,1.57.12,1.98-.56l90.28-151.78,7-12"/>
  <line class="cls-1" x1="489.16" x2="489.16" y2="1129.16"/>
  <text class="cls-3" transform="translate(523.96 597.95)"><tspan x="0" y="0">Rest</tspan></text>
  <circle class="cls-2" cx="449.16" cy="115" r="1"/>
</svg>