<svg xmlns="http://www.w3.org/2000/svg" width="16" height="15" viewBox="0 0 16 15" fill="none">
<circle cx="5.50726" cy="13.4057" r="1.06976" fill="#7E2832"/>
<circle cx="12.9955" cy="13.4057" r="1.06976" fill="#7E2832"/>
<path d="M12.8274 10.8179H5.54713C5.16713 10.8179 4.84277 10.5433 4.78005 10.1685L3.77766 4.17899H14.0184C14.5196 4.17899 14.89 4.64615 14.7756 5.13416L13.5846 10.2176C13.5022 10.5692 13.1885 10.8179 12.8274 10.8179Z" fill="#7E2832"/>
<path d="M1 1.52344H2.67483C3.05483 1.52344 3.37919 1.79802 3.44191 2.17281L3.77766 4.17899M3.77766 4.17899L4.78005 10.1685C4.84277 10.5433 5.16713 10.8179 5.54713 10.8179H12.8274C13.1885 10.8179 13.5022 10.5692 13.5846 10.2176L14.7756 5.13416C14.89 4.64615 14.5196 4.17899 14.0184 4.17899H3.77766Z" stroke="#7E2832" stroke-width="1.60464" stroke-linecap="round" stroke-linejoin="round"/>
</svg>