<svg xmlns="http://www.w3.org/2000/svg" width="300" height="62" viewBox="0 0 300 62" fill="none">
<path d="M183.984 0.179489C183.826 0.284946 183.648 0.42995 183.596 0.502452C183.543 0.581544 182.984 1.22088 182.359 1.93271C180.748 3.76503 178.571 6.01259 176.532 7.97013C175.565 8.89288 174.658 9.80245 174.507 9.99359C174.092 10.5407 174.059 10.9954 174.428 11.1338C174.691 11.2393 174.934 11.1273 175.947 10.4616C176.447 10.132 177.039 9.77609 177.269 9.66404C178.005 9.3213 178.551 9.36085 178.781 9.77609C178.887 9.96723 178.893 11.325 178.893 31.0059C178.893 51.0428 178.887 52.0578 178.775 52.6246C178.361 54.681 177.65 55.7488 176.236 56.4277C175.651 56.7111 175.506 56.8495 175.506 57.1197C175.506 57.3175 175.631 57.4757 176.651 58.5434C177.282 59.2025 178.091 60.1121 178.446 60.5669C179.268 61.6083 179.597 61.9115 179.827 61.8521C180.702 61.6346 182.451 59.3014 183.043 57.5679C183.142 57.2779 183.24 57.0143 183.267 56.9879C183.293 56.9616 183.451 57.1197 183.622 57.3372C185.332 59.5189 188.028 61.1337 190.922 61.7203C192.185 61.9774 193.059 62.0367 194.671 61.9971C196.558 61.951 197.755 61.773 199.314 61.3183C202.938 60.2703 206.062 58.0029 208.659 54.536C211.593 50.6144 213.204 46.027 213.592 40.4971C213.691 39.0668 213.638 35.9888 213.493 34.8617C212.875 30.0634 211.316 26.5965 208.488 23.7492C206.068 21.3039 203.161 19.9395 199.59 19.5638C198.465 19.4452 196.17 19.5177 195.335 19.7022C191.415 20.5459 187.555 23.4064 184.766 27.5324L184.247 28.3036L184.273 16.8681C184.306 4.93165 184.299 5.07006 184.615 2.09749C184.747 0.851778 184.773 0.462905 184.714 0.291537C184.595 -0.0577894 184.411 -0.0907447 183.984 0.179489ZM198.13 23.9798C200.254 24.3424 202.155 25.3706 203.727 26.9986C207.318 30.7093 208.797 36.4304 207.929 43.1928C207.37 47.5693 205.713 51.636 203.24 54.7206C201.201 57.2647 198.88 58.7543 195.953 59.3937C195.348 59.5255 195.085 59.5387 193.625 59.5453C191.79 59.5453 191.369 59.4925 190.107 59.0839C188.765 58.6489 187.765 58.0359 186.785 57.0407C185.332 55.5774 184.536 53.7122 184.326 51.2405C184.227 50.1596 184.227 36.9577 184.326 35.7779C184.549 32.9107 185.404 30.505 186.897 28.5013C189.028 25.654 191.797 24.1117 195.269 23.8282C195.927 23.7755 197.393 23.8546 198.13 23.9798Z" fill="black"/>
<path d="M90.9236 1.14838C88.3784 1.51089 85.9911 2.62478 84.3074 4.23959C82.8014 5.67644 81.999 7.29126 81.782 9.32131C81.4597 12.3927 82.8474 15.2599 85.2413 16.4594C86.0108 16.8417 86.4712 16.9472 87.5432 16.9801C88.7072 17.0197 89.0821 16.9472 89.9371 16.5319C90.6276 16.1892 91.4431 15.418 91.8048 14.7589C92.2323 13.9746 92.3441 13.4803 92.3441 12.3532C92.3441 11.4964 92.3244 11.3052 92.1929 10.9295C92.0285 10.4418 91.8048 10.1913 91.5878 10.2243C91.476 10.2375 91.4102 10.3429 91.2984 10.6725C91.0617 11.3448 90.8775 11.6677 90.5355 11.9907C90.0883 12.4191 89.7069 12.5905 89.0953 12.63C87.9049 12.7157 86.9776 12.1093 86.3988 10.8702C86.0634 10.1518 85.9779 9.69041 86.0174 8.82698C86.1226 6.46078 87.6287 4.79983 90.2264 4.19345C91.1143 3.98913 93.0347 3.99572 94.0212 4.20664C96.6519 4.76688 98.9405 6.09827 101.262 8.42492C105.234 12.4125 108.529 18.4236 110.029 24.428C111.535 30.4589 111.64 37.3663 110.298 42.8237C109.299 46.9036 107.595 50.0673 105.004 52.6576C102.406 55.2611 99.6508 56.6386 95.8298 57.2516C94.7709 57.4229 91.5286 57.4229 90.5027 57.2516C85.8398 56.4672 81.999 54.0219 78.4608 49.5862C75.4552 45.8161 73.4756 41.4528 72.6864 36.839C72.3181 34.7101 72.2853 34.2026 72.2853 30.8741C72.2853 29.1077 72.3247 27.2688 72.3708 26.5899C72.8048 20.2823 73.7058 16.3408 75.5473 12.7091C76.5535 10.7252 78.0004 8.8797 79.8156 7.2583C80.5456 6.60578 80.8152 6.24987 80.7889 5.95986C80.7757 5.81486 80.7231 5.74895 80.5916 5.70281C79.9865 5.49189 77.3625 7.06057 75.5473 8.71493C72.1932 11.7864 69.5362 16.6374 68.1814 22.1541C67.4185 25.2321 67.0897 27.9213 67.0108 31.5332C66.9121 36.2063 67.4909 40.2796 68.7996 44.1881C70.8318 50.265 74.6989 55.617 79.2237 58.6225C81.9398 60.4285 84.6428 61.4039 88.1022 61.8324C89.1347 61.9576 92.2521 61.9378 93.3241 61.7994C97.5463 61.2326 100.933 59.7825 104.314 57.0868C105.294 56.3025 107.267 54.3383 108.135 53.2837C112.909 47.477 115.547 40.9519 116.053 33.6753C116.139 32.4296 116.139 29.6416 116.053 28.3036C115.58 21.027 113.455 14.9039 109.608 9.76291C108.661 8.49742 108.043 7.7724 107.023 6.77056C105.53 5.28757 103.866 4.06822 102.084 3.15206C100.078 2.12386 98.4276 1.59657 95.9942 1.21429C95.0406 1.06269 91.8114 1.01656 90.9236 1.14838Z" fill="black"/>
<path d="M155.783 12.228C154.408 12.5246 153.856 13.8098 154.461 15.2928C154.803 16.1299 155.125 16.5319 156.23 17.4811C157.572 18.6279 158.196 19.3661 158.815 20.5261C158.953 20.7766 159.065 20.9677 159.065 20.9414C159.065 20.9216 158.979 20.6316 158.874 20.3086C158.466 19.0695 158.019 18.3906 156.842 17.2174C155.921 16.3013 155.566 15.8465 155.204 15.1215C154.711 14.1394 154.803 13.5132 155.507 13.0123C155.77 12.8278 155.829 12.8146 156.388 12.8146C157.098 12.8146 157.335 12.9134 157.841 13.421C158.196 13.7703 158.361 14.0669 158.479 14.5151C158.571 14.8974 158.683 15.0028 158.9 14.9039C159.019 14.8512 159.065 14.7589 159.097 14.5348C159.17 14.0603 159.63 13.5726 160.176 13.3814C160.886 13.1441 161.643 13.5132 161.965 14.258C162.083 14.5414 162.103 14.6733 162.077 15.1544C162.004 16.4067 161.314 17.4745 159.959 18.417C159.459 18.7597 159.255 18.9245 159.459 18.8125C159.9 18.562 160.992 17.7777 161.235 17.5338C161.583 17.1845 161.971 16.5254 162.208 15.886C162.675 14.6337 162.136 13.2562 161.064 12.9398C160.748 12.8475 160.63 12.8475 160.354 12.9069C159.874 13.0123 159.387 13.2562 159.065 13.5528C158.9 13.6978 158.769 13.7703 158.755 13.7241C158.69 13.5264 158.302 13.0189 158.058 12.808C157.683 12.485 157.263 12.2807 156.796 12.195C156.329 12.1093 156.316 12.1093 155.783 12.228Z" fill="black"/>
<path d="M220.826 12.228C219.452 12.5246 218.899 13.8098 219.504 15.2928C219.846 16.1299 220.169 16.5319 221.273 17.4811C222.615 18.6279 223.24 19.3661 223.858 20.5261C223.996 20.7766 224.108 20.9677 224.108 20.9414C224.108 20.9216 224.022 20.6316 223.917 20.3086C223.51 19.0695 223.062 18.3906 221.885 17.2174C220.964 16.3013 220.609 15.8465 220.247 15.1215C219.754 14.1394 219.846 13.5132 220.55 13.0123C220.813 12.8278 220.872 12.8146 221.431 12.8146C222.142 12.8146 222.378 12.9134 222.885 13.421C223.24 13.7703 223.404 14.0669 223.523 14.5151C223.615 14.8974 223.727 15.0028 223.944 14.9039C224.062 14.8512 224.108 14.7589 224.141 14.5348C224.213 14.0603 224.674 13.5726 225.219 13.3814C225.93 13.1441 226.686 13.5132 227.008 14.258C227.127 14.5414 227.146 14.6733 227.12 15.1544C227.048 16.4067 226.357 17.4745 225.002 18.417C224.503 18.7597 224.299 18.9245 224.503 18.8125C224.943 18.562 226.035 17.7777 226.278 17.5338C226.627 17.1845 227.015 16.5254 227.252 15.886C227.719 14.6337 227.179 13.2562 226.107 12.9398C225.792 12.8475 225.673 12.8475 225.397 12.9069C224.917 13.0123 224.43 13.2562 224.108 13.5528C223.944 13.6978 223.812 13.7703 223.799 13.7241C223.733 13.5264 223.345 13.0189 223.102 12.808C222.727 12.485 222.306 12.2807 221.839 12.195C221.372 12.1093 221.359 12.1093 220.826 12.228Z" fill="black"/>
<path d="M102.084 15.7937C102.189 16.8219 102.15 18.6806 102.025 19.3068C101.749 20.625 101.196 21.9168 100.42 23.0571L100.006 23.6767L100.151 23.8414L100.302 23.9996L100.006 23.8612C99.8416 23.7887 99.1708 23.5053 98.5131 23.2351C96.3822 22.3519 95.718 21.9366 94.6723 20.8359C93.4951 19.5968 92.5415 17.8238 92.1797 16.1892C92.0679 15.7146 91.9167 15.6751 91.9167 16.1233C91.9167 16.499 92.1732 17.5931 92.3968 18.1929C92.6204 18.7861 92.9952 19.5177 93.3701 20.0911C93.5477 20.3614 93.6924 20.5854 93.6924 20.5986C93.6924 20.6118 93.6332 20.625 93.5608 20.625C93.3833 20.625 93.3175 20.7766 93.2649 21.35C93.2452 21.6202 93.1597 22.2003 93.0873 22.6353C92.7914 24.3292 92.8637 24.9026 93.4359 25.5288C93.7516 25.8781 94.0804 26.056 94.7446 26.2538C94.9419 26.3131 95.1919 26.4251 95.2971 26.5108L95.4944 26.669L95.6456 28.3102C95.7246 29.2132 95.8693 30.6434 95.9613 31.4937C96.2573 34.1696 96.2047 34.7299 95.5338 36.3974C94.7907 38.2232 93.9686 39.1459 92.3376 39.9896C91.1735 40.5828 90.9302 40.6289 88.7927 40.6289C86.6619 40.6289 86.2805 40.5696 85.4715 40.1214C84.8665 39.7918 83.8997 38.8493 83.5248 38.2232C83.3867 37.9859 83.1763 37.5311 83.0645 37.2015C82.9526 36.8786 82.8145 36.5886 82.7619 36.549C82.4923 36.3777 82.3016 36.7072 81.9727 37.9331C81.782 38.645 81.7623 38.8098 81.7623 39.7061C81.7557 40.6553 81.7623 40.708 81.9333 41.0244C82.2358 41.6044 82.808 42.0789 83.4656 42.3162L83.7945 42.4283L83.801 42.9819C83.8142 43.9706 84.1233 44.9065 85.1098 46.9893C86.458 49.8234 87.3722 51.4053 88.4245 52.7433C88.8388 53.264 89.0229 53.3628 89.1479 53.1322C89.2005 53.0399 89.1676 52.9212 89.0164 52.651C88.2337 51.2207 87.9246 50.0409 87.8589 48.1625C87.7931 46.4027 88.0101 45.8029 88.7007 45.8029C88.8651 45.8029 88.9966 45.9017 89.4373 46.3631C90.1738 47.1211 90.5027 47.2727 91.5023 47.3056C92.6467 47.3452 93.4753 47.1343 94.8104 46.462C95.0998 46.317 95.3563 46.1983 95.376 46.1983C95.4944 46.1983 95.3168 47.0486 95.0406 47.8C94.6 48.993 93.0742 52.038 92.4099 53.0465C92.0482 53.5869 92.3705 53.7517 92.9361 53.3167C93.916 52.5587 95.8627 50.1398 97.0794 48.1691C98.1316 46.462 99.2957 43.641 99.8416 41.4528C100.368 39.3502 100.637 37.6234 100.703 35.9822C100.775 34.2421 100.598 32.6339 100.223 31.5991C99.9534 30.8412 99.9534 30.8675 100.289 30.8148C100.618 30.7621 101.617 30.3007 102.097 29.9711C102.887 29.4438 103.294 28.9957 103.294 28.6727C103.294 28.4816 102.9 28.0663 102.295 27.5983C101.69 27.137 101.584 26.959 101.4 26.0626C101.21 25.1069 101.025 24.6719 100.67 24.316C100.394 24.0458 100.381 24.0128 100.526 24.0194C100.651 24.0194 100.756 23.8942 101.098 23.3273C102.084 21.6927 102.571 19.9132 102.571 17.9688C102.571 16.7033 102.328 15.2203 102.124 15.2203C102.045 15.2203 102.038 15.3126 102.084 15.7937ZM94.4816 22.108C94.817 22.5035 95.1656 22.978 95.251 23.1626C95.8627 24.3621 96.4743 24.9751 97.6581 25.5551C98.6315 26.0363 98.7564 26.1219 98.6446 26.234C98.4276 26.4515 98.6775 27.1502 99.0787 27.4797C99.4733 27.8093 100.019 27.8752 100.105 27.6115C100.151 27.4731 100.039 26.9392 99.9073 26.6954C99.6903 26.267 99.0063 25.766 97.8357 25.1728C96.7768 24.6324 96.2639 24.138 95.7377 23.1626C95.5404 22.8 95.2116 22.3123 95.0143 22.075L94.646 21.6466L95.0209 21.9893C95.9745 22.8462 96.6453 23.1691 99.789 24.2962C100.466 24.5401 100.789 25.0806 101.052 26.3856C101.21 27.1633 101.367 27.427 101.926 27.862C102.15 28.0334 102.459 28.2838 102.617 28.4288C102.88 28.6661 102.893 28.6859 102.801 28.8243C102.466 29.3054 100.782 30.3205 100.17 30.4193C99.9402 30.4523 99.8876 30.4325 99.7627 30.2875C99.5785 30.0766 99.2562 30.0568 99.151 30.248C99.0655 30.4061 99.2168 30.7423 99.3944 30.8016C99.6114 30.8741 100.072 32.3373 100.197 33.3787C100.289 34.1367 100.289 36.5161 100.197 37.3531C100.111 38.1638 99.7298 40.1939 99.4733 41.2221C98.8814 43.6212 97.6187 46.5938 96.4349 48.3932C95.547 49.7312 93.6069 52.2358 93.3109 52.4203C93.278 52.4401 93.5674 51.8667 93.9554 51.1416C95.0735 49.0457 95.7575 47.3188 95.8364 46.3763L95.8824 45.882L96.1455 45.7633C96.4349 45.6315 96.7834 45.1635 96.7834 44.9065C96.7834 44.3726 96.0337 44.6758 95.6259 45.3811C95.4747 45.6447 95.3694 45.7106 94.5934 46.0929C93.4688 46.6399 92.7848 46.8575 91.9824 46.9036C90.871 46.9695 90.2791 46.7388 89.6938 46.0006C89.332 45.5458 89.0887 45.4074 88.6612 45.4074C87.7405 45.4074 87.4445 46.0006 87.4445 47.8857C87.4445 49.0061 87.5958 50.1728 87.8391 50.9703C87.9049 51.1812 87.9378 51.3328 87.9049 51.2998C87.6813 51.0691 86.9513 49.7443 86.07 47.9779C84.61 45.0383 84.2219 43.9903 84.2219 42.9885V42.5073H84.5245C84.9191 42.5073 85.2085 42.2437 85.2085 41.8878C85.2085 41.5978 85.0177 41.4528 84.6429 41.4528C84.3601 41.4528 84.0707 41.6571 83.9918 41.9142C83.9589 42.0262 83.9326 42.0328 83.7024 41.9471C83.0842 41.7296 82.5383 41.2946 82.3016 40.8266C82.0253 40.2927 82.078 39.1195 82.4331 37.8606L82.6238 37.2015L82.7093 37.4652C82.9658 38.2495 83.7024 39.3173 84.4061 39.9039C84.6494 40.1082 85.1164 40.4048 85.4386 40.5696C86.2805 40.9782 86.8132 41.0573 88.8585 41.0705C90.4238 41.0771 90.5356 41.0705 91.134 40.9057C92.6138 40.5168 94.0607 39.5875 94.8893 38.4934C95.501 37.6827 96.2376 35.9756 96.4809 34.776C96.6256 34.084 96.6124 33.7083 96.3888 31.5925C96.2836 30.5841 96.1323 29.055 96.0534 28.2047C95.9548 27.0842 95.8824 26.6031 95.8035 26.4581C95.6588 26.201 95.3365 25.9901 94.8828 25.8583C94.2645 25.6738 94.133 25.6144 93.8699 25.3772C93.2978 24.8631 93.2123 24.3753 93.4556 22.9978C93.5411 22.4705 93.6398 21.8575 93.6661 21.6268C93.699 21.2841 93.7253 21.2248 93.791 21.2973C93.8371 21.3434 94.1462 21.7059 94.4816 22.108ZM99.4733 26.8074C99.6311 27.0315 99.7363 27.394 99.618 27.3215C99.5325 27.2688 99.2826 26.8008 99.2826 26.6888C99.2826 26.5833 99.3286 26.6097 99.4733 26.8074ZM84.8139 41.901C84.8139 42.0064 84.656 42.1119 84.4916 42.1119C84.3403 42.1119 84.3338 42.1053 84.4521 41.9801C84.5705 41.8482 84.8139 41.7955 84.8139 41.901Z" fill="black"/>
<path d="M163.701 18.9047C163.596 18.9706 162.997 19.3925 162.386 19.8407C160.584 21.1589 158.92 22.1937 156.414 23.5646C155.467 24.0787 155.184 24.3226 155.184 24.6126C155.184 24.751 155.237 24.8828 155.309 24.9553C155.382 25.0212 155.901 25.2387 156.467 25.4365C157.374 25.7528 157.519 25.8253 157.73 26.0494C158.006 26.3592 158.164 26.702 158.321 27.3215C158.433 27.7499 158.44 28.62 158.44 42.3096V56.8429L158.282 57.1659C158.091 57.5613 157.624 58.0359 156.611 58.8796C155.566 59.7562 155.309 60.1978 155.684 60.4944C155.96 60.7119 156.243 60.7251 157.848 60.5932C159.703 60.4416 161.899 60.4416 163.668 60.5932C166.135 60.7976 166.694 60.7251 166.694 60.1846C166.694 59.9407 166.266 59.453 165.575 58.9059C164.655 58.1809 164.089 57.6141 163.912 57.2252L163.767 56.9088V41.0903C163.767 28.9693 163.787 24.9685 163.852 23.9864C163.951 22.4573 164.148 20.5986 164.293 19.867C164.425 19.1552 164.418 19.0036 164.247 18.8849C164.056 18.7465 163.944 18.7531 163.701 18.9047Z" fill="black"/>
<path d="M229.008 18.9047C228.902 18.9706 228.304 19.3925 227.692 19.8407C225.89 21.1589 224.226 22.1937 221.721 23.5646C220.774 24.0787 220.491 24.3226 220.491 24.6126C220.491 24.751 220.543 24.8828 220.616 24.9553C220.688 25.0212 221.208 25.2387 221.773 25.4365C222.681 25.7528 222.826 25.8253 223.036 26.0494C223.312 26.3592 223.47 26.702 223.628 27.3215C223.74 27.7499 223.746 28.62 223.746 42.3096V56.8429L223.588 57.1659C223.398 57.5613 222.931 58.0359 221.918 58.8796C220.872 59.7562 220.616 60.1978 220.991 60.4944C221.267 60.7119 221.55 60.7251 223.154 60.5932C225.009 60.4416 227.206 60.4416 228.975 60.5932C231.441 60.7976 232 60.7251 232 60.1846C232 59.9407 231.573 59.453 230.882 58.9059C229.961 58.1809 229.396 57.6141 229.218 57.2252L229.073 56.9088V41.0903C229.073 28.9693 229.093 24.9685 229.159 23.9864C229.258 22.4573 229.455 20.5986 229.6 19.867C229.731 19.1552 229.724 19.0036 229.553 18.8849C229.363 18.7465 229.251 18.7531 229.008 18.9047Z" fill="black"/>
<path d="M141.867 19.5506C137.539 20.1043 133.514 23.0307 131.403 27.1699L131.028 27.9081L130.87 27.2886C130.265 24.8828 128.542 22.7473 125.339 20.4404C124.925 20.1438 124.517 19.8802 124.432 19.8604C124.149 19.7879 123.892 19.9593 123.504 20.4866C123.301 20.7634 122.472 21.64 121.663 22.4375C120.354 23.736 120.196 23.9073 120.196 24.0985C120.196 24.3094 120.21 24.316 121.4 24.9026C123.952 26.1549 124.833 26.8931 125.589 28.4354C126.05 29.3713 126.24 30.1689 126.319 31.5003C126.359 32.1791 126.378 37.1752 126.365 44.7154C126.346 55.6895 126.332 56.8627 126.24 57.0736C126.05 57.4888 125.609 57.9766 124.918 58.5302C123.945 59.3212 123.656 59.6046 123.518 59.9078C123.353 60.2769 123.432 60.4944 123.774 60.6262C124.004 60.7119 124.202 60.7119 125.648 60.5932C127.608 60.4416 129.772 60.4416 131.574 60.5932C133.817 60.7778 134.474 60.7251 134.573 60.3362C134.672 59.9473 134.468 59.6903 133.396 58.8005C132.416 57.9898 132.048 57.6141 131.824 57.1922L131.673 56.9088V43.9244V30.94L132.113 30.0502C133.054 28.1454 134.343 26.4515 135.842 25.1531C138.098 23.2021 140.282 22.4639 142.689 22.833C144.247 23.0703 145.306 23.7096 145.799 24.7049C146.003 25.1201 146.01 25.1728 146.01 25.9308C146.01 26.6822 145.997 26.7481 145.806 27.1502C145.319 28.1784 144.55 28.6661 143.228 28.7979C142.892 28.8309 142.57 28.8902 142.518 28.9363C142.182 29.2132 142.754 30.0173 143.603 30.4391C144.3 30.795 144.898 30.9137 146.174 30.9532C147.509 30.9927 147.937 30.9202 148.739 30.5248C149.489 30.1623 150.265 29.3582 150.666 28.5343C151.1 27.6577 151.245 27.0513 151.284 25.9242C151.311 25.2058 151.297 24.8762 151.212 24.4412C150.85 22.6616 149.443 21.0402 147.542 20.2163C146.345 19.7022 145.161 19.5045 143.346 19.5177C142.643 19.5177 141.978 19.5375 141.867 19.5506Z" fill="black"/>
<path d="M100.644 42.4217C100.578 42.481 100.591 42.6919 100.657 42.7314C100.69 42.7578 100.992 42.7842 101.334 42.7974C102.571 42.8501 103.59 43.4433 103.998 44.3397C104.314 45.0251 104.176 46.2181 103.663 47.2463C103.531 47.5034 103.413 47.7143 103.4 47.7143C103.386 47.7143 103.4 47.6022 103.432 47.4638C103.531 47.075 103.511 46.1456 103.4 45.6051C103.136 44.3463 102.433 43.9772 100.795 44.2474C99.8942 44.3924 99.6508 44.4913 99.6245 44.7022C99.5982 44.9131 99.6903 44.9263 100.249 44.7813C100.9 44.6099 101.841 44.5242 102.15 44.6099C102.788 44.7813 103.064 45.3876 103.064 46.5938C103.064 47.4836 102.926 47.9713 102.499 48.6436C102.209 49.0852 102.183 49.3159 102.42 49.3489C102.61 49.3752 103.248 48.7293 103.689 48.057C104.294 47.1343 104.662 45.8754 104.59 44.9856C104.465 43.4762 103.044 42.3821 101.216 42.3755C100.927 42.3755 100.664 42.3953 100.644 42.4217Z" fill="black"/>
<path d="M83.9917 47.2991C83.7155 49.0061 83.3998 49.9553 82.5515 51.6228C81.8609 52.9937 81.828 53.119 82.1766 53.1717C82.341 53.1981 82.9789 52.6115 83.5577 51.8996C84.5113 50.7264 85.5636 48.8611 85.3926 48.6502C85.2282 48.4591 85.1032 48.5777 84.7612 49.2566C84.3337 50.1003 83.8931 50.7923 83.288 51.5503C83.0381 51.8733 82.8211 52.1303 82.8145 52.1303C82.8079 52.1303 82.9724 51.781 83.1762 51.3526C83.7813 50.1266 84.3206 48.3339 84.3666 47.4045C84.3863 47.1079 84.3798 47.0881 84.2088 47.0684C84.0509 47.0486 84.0312 47.075 83.9917 47.2991Z" fill="black"/>
</svg>