<?xml version="1.0" standalone="no"?>
<!DOCTYPE svg PUBLIC "-//W3C//DTD SVG 20010904//EN"
 "http://www.w3.org/TR/2001/REC-SVG-20010904/DTD/svg10.dtd">
<svg version="1.0" xmlns="http://www.w3.org/2000/svg"
 width="3508.000000pt" height="2480.000000pt" viewBox="0 0 3508.000000 2480.000000"
 preserveAspectRatio="xMidYMid meet">

<g transform="translate(0.000000,2480.000000) scale(0.100000,-0.100000)"
fill="#000000" stroke="none">
<path d="M22719 17072 c-24 -16 -51 -38 -59 -49 -8 -12 -93 -109 -188 -217
-245 -278 -576 -619 -886 -916 -147 -140 -285 -278 -308 -307 -63 -83 -68
-152 -12 -173 40 -16 77 1 231 102 76 50 166 104 201 121 112 52 195 46 230
-17 16 -29 17 -235 17 -3221 0 -3040 -1 -3194 -18 -3280 -63 -312 -171 -474
-386 -577 -89 -43 -111 -64 -111 -105 0 -30 19 -54 174 -216 96 -100 219 -238
273 -307 125 -158 175 -204 210 -195 133 33 399 387 489 650 15 44 30 84 34
88 4 4 28 -20 54 -53 260 -331 670 -576 1110 -665 192 -39 325 -48 570 -42
287 7 469 34 706 103 551 159 1026 503 1421 1029 446 595 691 1291 750 2130
15 217 7 684 -15 855 -94 728 -331 1254 -761 1686 -368 371 -810 578 -1353
635 -171 18 -520 7 -647 -21 -596 -128 -1183 -562 -1607 -1188 l-79 -117 4
1735 c5 1811 4 1790 52 2241 20 189 24 248 15 274 -18 53 -46 58 -111 17z
m2151 -3611 c323 -55 612 -211 851 -458 546 -563 771 -1431 639 -2457 -85
-664 -337 -1281 -713 -1749 -310 -386 -663 -612 -1108 -709 -92 -20 -132 -22
-354 -23 -279 0 -343 8 -535 70 -204 66 -356 159 -505 310 -221 222 -342 505
-374 880 -15 164 -15 2167 0 2346 34 435 164 800 391 1104 324 432 745 666
1273 709 100 8 323 -4 435 -23z"/>
<path d="M8569 16925 c-387 -55 -750 -224 -1006 -469 -229 -218 -351 -463
-384 -771 -49 -466 162 -901 526 -1083 117 -58 187 -74 350 -79 177 -6 234 5
364 68 105 52 229 169 284 269 65 119 82 194 82 365 0 130 -3 159 -23 216 -25
74 -59 112 -92 107 -17 -2 -27 -18 -44 -68 -36 -102 -64 -151 -116 -200 -68
-65 -126 -91 -219 -97 -181 -13 -322 79 -410 267 -51 109 -64 179 -58 310 16
359 245 611 640 703 135 31 427 30 577 -2 400 -85 748 -287 1101 -640 604
-605 1105 -1517 1333 -2428 229 -915 245 -1963 41 -2791 -152 -619 -411 -1099
-805 -1492 -395 -395 -814 -604 -1395 -697 -161 -26 -654 -26 -810 0 -709 119
-1293 490 -1831 1163 -457 572 -758 1234 -878 1934 -56 323 -61 400 -61 905 0
268 6 547 13 650 66 957 203 1555 483 2106 153 301 373 581 649 827 111 99
152 153 148 197 -2 22 -10 32 -30 39 -92 32 -491 -206 -767 -457 -510 -466
-914 -1202 -1120 -2039 -116 -467 -166 -875 -178 -1423 -15 -709 73 -1327 272
-1920 309 -922 897 -1734 1585 -2190 413 -274 824 -422 1350 -487 157 -19 631
-16 794 5 642 86 1157 306 1671 715 149 119 449 417 581 577 726 881 1127
1871 1204 2975 13 189 13 612 0 815 -72 1104 -395 2033 -980 2813 -144 192
-238 302 -393 454 -227 225 -480 410 -751 549 -305 156 -556 236 -926 294
-145 23 -636 30 -771 10z"/>
<path d="M18431 15244 c-209 -45 -293 -240 -201 -465 52 -127 101 -188 269
-332 204 -174 299 -286 393 -462 21 -38 38 -67 38 -63 0 3 -13 47 -29 96 -62
188 -130 291 -309 469 -140 139 -194 208 -249 318 -75 149 -61 244 46 320 40
28 49 30 134 30 108 0 144 -15 221 -92 54 -53 79 -98 97 -166 14 -58 31 -74
64 -59 18 8 25 22 30 56 11 72 81 146 164 175 108 36 223 -20 272 -133 18 -43
21 -63 17 -136 -11 -190 -116 -352 -322 -495 -76 -52 -107 -77 -76 -60 67 38
233 157 270 194 53 53 112 153 148 250 71 190 -11 399 -174 447 -48 14 -66 14
-108 5 -73 -16 -147 -53 -196 -98 -25 -22 -45 -33 -47 -26 -10 30 -69 107
-106 139 -57 49 -121 80 -192 93 -71 13 -73 13 -154 -5z"/>
<path d="M28321 15244 c-209 -45 -293 -240 -201 -465 52 -127 101 -188 269
-332 204 -174 299 -286 393 -462 21 -38 38 -67 38 -63 0 3 -13 47 -29 96 -62
188 -130 291 -309 469 -140 139 -194 208 -249 318 -75 149 -61 244 46 320 40
28 49 30 134 30 108 0 144 -15 221 -92 54 -53 79 -98 97 -166 14 -58 31 -74
64 -59 18 8 25 22 30 56 11 72 81 146 164 175 108 36 223 -20 272 -133 18 -43
21 -63 17 -136 -11 -190 -116 -352 -322 -495 -76 -52 -107 -77 -76 -60 67 38
233 157 270 194 53 53 112 153 148 250 71 190 -11 399 -174 447 -48 14 -66 14
-108 5 -73 -16 -147 -53 -196 -98 -25 -22 -45 -33 -47 -26 -10 30 -69 107
-106 139 -57 49 -121 80 -192 93 -71 13 -73 13 -154 -5z"/>
<path d="M10266 14703 c16 -156 10 -438 -9 -533 -42 -200 -126 -396 -244 -569
l-63 -94 22 -25 23 -24 -45 21 c-25 11 -127 54 -227 95 -324 134 -425 197
-584 364 -179 188 -324 457 -379 705 -17 72 -40 78 -40 10 0 -57 39 -223 73
-314 34 -90 91 -201 148 -288 27 -41 49 -75 49 -77 0 -2 -9 -4 -20 -4 -27 0
-37 -23 -45 -110 -3 -41 -16 -129 -27 -195 -45 -257 -34 -344 53 -439 48 -53
98 -80 199 -110 30 -9 68 -26 84 -39 l30 -24 23 -249 c12 -137 34 -354 48
-483 45 -406 37 -491 -65 -744 -113 -277 -238 -417 -486 -545 -177 -90 -214
-97 -539 -97 -324 0 -382 9 -505 77 -92 50 -239 193 -296 288 -21 36 -53 105
-70 155 -17 49 -38 93 -46 99 -41 26 -70 -24 -120 -210 -29 -108 -32 -133 -32
-269 -1 -144 0 -152 26 -200 46 -88 133 -160 233 -196 l50 -17 1 -84 c2 -150
49 -292 199 -608 205 -430 344 -670 504 -873 63 -79 91 -94 110 -59 8 14 3 32
-20 73 -119 217 -166 396 -176 681 -10 267 23 358 128 358 25 0 45 -15 112
-85 112 -115 162 -138 314 -143 174 -6 300 26 503 128 44 22 83 40 86 40 18 0
-9 -129 -51 -243 -67 -181 -299 -643 -400 -796 -55 -82 -6 -107 80 -41 149
115 445 482 630 781 160 259 337 687 420 1019 80 319 121 581 131 830 11 264
-16 508 -73 665 -41 115 -41 111 10 119 50 8 202 78 275 128 120 80 182 148
182 197 0 29 -60 92 -152 163 -92 70 -108 97 -136 233 -29 145 -57 211 -111
265 -42 41 -44 46 -22 45 19 0 35 19 87 105 150 248 224 518 224 813 0 192
-37 417 -68 417 -12 0 -13 -14 -6 -87z m-1156 -958 c51 -60 104 -132 117 -160
93 -182 186 -275 366 -363 148 -73 167 -86 150 -103 -33 -33 5 -139 66 -189
60 -50 143 -60 156 -20 7 21 -10 102 -30 139 -33 65 -137 141 -315 231 -161
82 -239 157 -319 305 -30 55 -80 129 -110 165 l-56 65 57 -52 c145 -130 247
-179 725 -350 103 -37 152 -119 192 -317 24 -118 48 -158 133 -224 34 -26 81
-64 105 -86 40 -36 42 -39 28 -60 -51 -73 -307 -227 -400 -242 -35 -5 -43 -2
-62 20 -28 32 -77 35 -93 6 -13 -24 10 -75 37 -84 33 -11 103 -233 122 -391
14 -115 14 -476 0 -603 -13 -123 -71 -431 -110 -587 -90 -364 -282 -815 -462
-1088 -135 -203 -430 -583 -475 -611 -5 -3 39 84 98 194 170 318 274 580 286
723 l7 75 40 18 c44 20 97 91 97 130 0 81 -114 35 -176 -72 -23 -40 -39 -50
-157 -108 -171 -83 -275 -116 -397 -123 -169 -10 -259 25 -348 137 -55 69 -92
90 -157 90 -140 0 -185 -90 -185 -376 0 -170 23 -347 60 -468 10 -32 15 -55
10 -50 -34 35 -145 236 -279 504 -222 446 -281 605 -281 757 l0 73 46 0 c60 0
104 40 104 94 0 44 -29 66 -86 66 -43 0 -87 -31 -99 -70 -5 -17 -9 -18 -44 -5
-94 33 -177 99 -213 170 -42 81 -34 259 20 450 l29 100 13 -40 c39 -119 151
-281 258 -370 37 -31 108 -76 157 -101 128 -62 209 -74 520 -76 238 -1 255 0
346 25 225 59 445 200 571 366 93 123 205 382 242 564 22 105 20 162 -14 483
-16 153 -39 385 -51 514 -15 170 -26 243 -38 265 -22 39 -71 71 -140 91 -94
28 -114 37 -154 73 -87 78 -100 152 -63 361 13 80 28 173 32 208 5 52 9 61 19
50 7 -7 54 -62 105 -123z m759 -713 c24 -34 40 -89 22 -78 -13 8 -51 79 -51
96 0 16 7 12 29 -18z m-2229 -2290 c0 -16 -24 -32 -49 -32 -23 0 -24 1 -6 20
18 20 55 28 55 12z"/>
<path d="M19635 14231 c-16 -10 -107 -74 -200 -142 -274 -200 -527 -357 -908
-565 -144 -78 -187 -115 -187 -159 0 -21 8 -41 19 -52 11 -10 90 -43 176 -73
138 -48 160 -59 192 -93 42 -47 66 -99 90 -193 17 -65 18 -197 18 -2274 l0
-2205 -24 -49 c-29 -60 -100 -132 -254 -260 -159 -133 -198 -200 -141 -245 42
-33 85 -35 329 -15 282 23 616 23 885 0 375 -31 460 -20 460 62 0 37 -65 111
-170 194 -140 110 -226 196 -253 255 l-22 48 0 2400 c0 1839 3 2446 13 2595
15 232 45 514 67 625 20 108 19 131 -7 149 -29 21 -46 20 -83 -3z"/>
<path d="M29565 14231 c-16 -10 -107 -74 -200 -142 -274 -200 -527 -357 -908
-565 -144 -78 -187 -115 -187 -159 0 -21 8 -41 19 -52 11 -10 90 -43 176 -73
138 -48 160 -59 192 -93 42 -47 66 -99 90 -193 17 -65 18 -197 18 -2274 l0
-2205 -24 -49 c-29 -60 -100 -132 -254 -260 -159 -133 -198 -200 -141 -245 42
-33 85 -35 329 -15 282 23 616 23 885 0 375 -31 460 -20 460 62 0 37 -65 111
-170 194 -140 110 -226 196 -253 255 l-22 48 0 2400 c0 1839 3 2446 13 2595
15 232 45 514 67 625 20 108 19 131 -7 149 -29 21 -46 20 -83 -3z"/>
<path d="M16315 14133 c-658 -84 -1270 -528 -1591 -1156 l-57 -112 -24 94
c-92 365 -354 689 -841 1039 -63 45 -125 85 -138 88 -43 11 -82 -15 -141 -95
-31 -42 -157 -175 -280 -296 -199 -197 -223 -223 -223 -252 0 -32 2 -33 183
-122 388 -190 522 -302 637 -536 70 -142 99 -263 111 -465 6 -103 9 -861 7
-2005 -3 -1665 -5 -1843 -19 -1875 -29 -63 -96 -137 -201 -221 -148 -120 -192
-163 -213 -209 -25 -56 -13 -89 39 -109 35 -13 65 -13 285 5 298 23 627 23
901 0 341 -28 441 -20 456 39 15 59 -16 98 -179 233 -149 123 -205 180 -239
244 l-23 43 0 1970 0 1970 67 135 c143 289 339 546 567 743 343 296 675 408
1041 352 237 -36 398 -133 473 -284 31 -63 32 -71 32 -186 0 -114 -2 -124 -31
-185 -74 -156 -191 -230 -392 -250 -51 -5 -100 -14 -108 -21 -51 -42 36 -164
165 -228 106 -54 197 -72 391 -78 203 -6 268 5 390 65 114 55 232 177 293 302
66 133 88 225 94 396 4 109 2 159 -11 225 -55 270 -269 516 -558 641 -182 78
-362 108 -638 106 -107 0 -208 -3 -225 -5z"/>
<path d="M10047 10663 c-10 -9 -8 -41 2 -47 5 -4 51 -8 103 -10 188 -8 343
-98 405 -234 48 -104 27 -285 -51 -441 -20 -39 -38 -71 -40 -71 -2 0 0 17 5
38 15 59 12 200 -5 282 -40 191 -147 247 -396 206 -137 -22 -174 -37 -178 -69
-4 -32 10 -34 95 -12 99 26 242 39 289 26 97 -26 139 -118 139 -301 0 -135
-21 -209 -86 -311 -44 -67 -48 -102 -12 -107 29 -4 126 94 193 196 92 140 148
331 137 466 -19 229 -235 395 -513 396 -44 0 -84 -3 -87 -7z"/>
<path d="M7515 9923 c-42 -259 -90 -403 -219 -656 -105 -208 -110 -227 -57
-235 25 -4 122 85 210 193 145 178 305 461 279 493 -25 29 -44 11 -96 -92 -65
-128 -132 -233 -224 -348 -38 -49 -71 -88 -72 -88 -1 0 24 53 55 118 92 186
174 458 181 599 3 45 2 48 -24 51 -24 3 -27 -1 -33 -35z"/>
</g>
</svg>
